<svg width="24" height="24" viewBox="0 0 24 24" fill="none" xmlns="http://www.w3.org/2000/svg">
<circle cx="12" cy="12" r="12" fill="#141414"/>
<path d="M17.3249 6.88915C17.2127 6.91649 6.18228 11.1356 6.05923 11.1985C5.81314 11.3243 5.81314 11.7727 6.06196 11.9013C6.10298 11.9231 6.77564 12.1583 7.55493 12.4208L8.96861 12.902L12.31 10.8595C14.1448 9.73563 15.6733 8.81688 15.7061 8.81688C15.7417 8.81415 15.7608 8.83055 15.7608 8.86884C15.7608 8.90438 14.9733 9.64813 13.2807 11.2067C11.9163 12.4618 10.7733 13.5145 10.7432 13.5446C10.694 13.5966 10.6803 13.7032 10.5928 14.9091C10.5409 15.6309 10.4971 16.2434 10.4971 16.2708C10.4971 16.3583 10.6202 16.4567 10.7295 16.4567C10.8225 16.4567 10.8799 16.4075 11.6374 15.6638L12.444 14.8735L12.7776 15.1278C13.7729 15.888 15.2713 17.0145 15.3561 17.0638C15.4709 17.1349 15.7252 17.1403 15.8456 17.0774C15.9331 17.0309 16.0534 16.9106 16.0971 16.8259C16.1135 16.7958 16.5756 14.7259 17.1252 12.2294C17.8252 9.04657 18.126 7.63837 18.126 7.52626C18.126 7.33485 18.0604 7.18173 17.9319 7.05868C17.7733 6.90829 17.5272 6.83993 17.3249 6.88915Z" fill="white"/>
</svg>
