<svg width="24" height="24" viewBox="0 0 24 24" fill="none" xmlns="http://www.w3.org/2000/svg">
<circle cx="12" cy="12" r="12" fill="#141414"/>
<path d="M10.454 8.04537C10.0384 8.111 9.77315 8.24771 9.66104 8.45553C9.61456 8.54303 9.61182 8.55943 9.64737 8.58131C9.66924 8.59498 9.71026 8.60865 9.73487 8.60865C9.82784 8.60865 10.0903 8.72623 10.1833 8.80826C10.3036 8.90943 10.372 9.04615 10.4321 9.28404C10.5032 9.55748 10.5032 11.0997 10.4349 11.395C10.2954 11.9883 10.0466 12.0567 9.6337 11.6137C9.23721 11.1872 8.5837 10.1071 8.20362 9.25123C7.91378 8.59225 7.8755 8.52936 7.70596 8.43365L7.55557 8.34889L6.44815 8.35709C5.83839 8.36256 5.29698 8.37896 5.24229 8.39264C5.1876 8.40631 5.10831 8.44459 5.06729 8.4774C4.99893 8.53209 4.99346 8.54576 5.0044 8.70162C5.01807 8.8985 5.19034 9.29225 5.72628 10.345C6.60948 12.0895 7.42979 13.3583 8.25557 14.2688C9.00753 15.0946 9.89893 15.6278 10.9462 15.8712C11.2524 15.9422 11.3263 15.9477 11.9962 15.9587C12.7591 15.9696 12.863 15.9587 13.0216 15.8465C13.1364 15.7672 13.1747 15.6387 13.2048 15.2751C13.2649 14.4794 13.5192 14.061 13.8829 14.1594C14.036 14.2004 14.211 14.3454 14.5556 14.7227C15.1817 15.4036 15.4962 15.6962 15.7314 15.8192C15.8517 15.8794 16.0021 15.945 16.0677 15.9641C16.2017 15.9997 17.7247 16.0024 18.2497 15.9669C18.7911 15.9313 18.9989 15.7973 18.9989 15.4856C18.9989 15.3243 18.9278 15.1575 18.7392 14.884C18.4876 14.5176 18.2716 14.2797 17.547 13.5579C17.1067 13.1176 16.8005 12.795 16.7732 12.7321C16.7048 12.579 16.7157 12.4149 16.8114 12.229C16.9017 12.0512 17.0274 11.8762 17.7439 10.9274C18.2853 10.211 18.5806 9.77076 18.7829 9.38248C18.9442 9.06529 18.9989 8.89576 18.9989 8.69889C18.9989 8.57584 18.988 8.54029 18.9306 8.48834C18.7993 8.36529 18.7146 8.35982 17.2763 8.36803L15.9228 8.37623L15.8353 8.43912C15.7423 8.50475 15.6657 8.64693 15.4716 9.11451C15.1189 9.9567 14.438 11.0915 14.006 11.559C13.831 11.7504 13.6314 11.8899 13.5357 11.8899C13.4399 11.8899 13.3005 11.7313 13.2376 11.5563C13.1829 11.395 13.1747 10.9301 13.2021 9.41529C13.213 8.74264 13.2103 8.63053 13.1692 8.49928C13.0407 8.08912 12.7482 8.00436 11.4685 8.00982C10.9817 8.01256 10.588 8.02623 10.454 8.04537Z" fill="white"/>
</svg>
