<svg width="24" height="24" viewBox="0 0 24 24" fill="none" xmlns="http://www.w3.org/2000/svg">
<circle cx="12" cy="12" r="11.5" stroke="#141414"/>
<g clip-path="url(#clip0_1752_1881)">
<path d="M11.248 5.04102C8.74336 5.36914 6.61602 7.0207 5.70273 9.34766C5.36094 10.2254 5.22695 11.0156 5.2543 12.0246C5.28164 13.1129 5.50859 13.9961 5.99805 14.9477L6.17031 15.284L5.58516 17.0094C5.2625 17.9582 5 18.773 5 18.8223C5 18.9289 5.07109 19 5.18047 19C5.22422 19 6.07187 18.743 7.05898 18.4285L8.8582 17.857L9.13711 17.9883C9.85078 18.3219 10.6027 18.5352 11.3711 18.6199C11.9617 18.6828 12.7984 18.6527 13.3809 18.5461C16.0113 18.0621 18.1359 16.0906 18.7949 13.5176C18.9617 12.8668 18.9863 12.6426 18.9863 11.8086C18.9863 11.1469 18.9781 11.0156 18.9234 10.7066C18.6691 9.29023 18.0648 8.10078 17.0859 7.09453C15.9539 5.92969 14.5676 5.24063 12.957 5.03828C12.5715 4.9918 11.6281 4.9918 11.248 5.04102ZM12.8805 6.49023C14.0672 6.6707 15.1281 7.19844 15.9594 8.03242C16.7879 8.8582 17.2855 9.83164 17.5016 11.043C17.548 11.3082 17.548 12.3227 17.5016 12.6016C17.3047 13.7691 16.7824 14.7918 15.9648 15.6094C14.5512 17.0258 12.5141 17.5453 10.5863 16.9875C10.1789 16.8699 9.65937 16.6375 9.25195 16.3914C9.16172 16.3367 9.06328 16.293 9.0332 16.293C9.00312 16.293 8.5793 16.4215 8.08984 16.5773C7.60039 16.7332 7.19844 16.8563 7.19297 16.8535C7.19023 16.8508 7.31602 16.4625 7.47461 15.9922C7.6332 15.5219 7.76172 15.1145 7.76172 15.0898C7.76172 15.0652 7.67969 14.9176 7.57852 14.759C7.09727 14.0125 6.82383 13.2414 6.71992 12.3418C6.68164 12.0164 6.70352 11.3246 6.76094 10.9883C7.05898 9.23828 8.1418 7.78906 9.75508 6.98242C10.1734 6.77461 10.8187 6.57227 11.3383 6.49297C11.6746 6.44102 12.5332 6.43828 12.8805 6.49023Z" fill="#141414"/>
<path d="M9.81731 8.6665C9.47004 8.74033 9.30325 8.82509 9.12551 9.01376C8.88762 9.27353 8.74544 9.61533 8.68801 10.0583C8.64973 10.3755 8.67981 10.7118 8.77551 11.0317C8.96419 11.6524 9.65598 12.656 10.4079 13.3997C11.097 14.086 11.7013 14.4743 12.5517 14.7833C13.2599 15.0431 13.7056 15.136 14.1294 15.1087C14.4439 15.0868 14.5505 15.0595 14.8048 14.9337C15.174 14.7505 15.4392 14.5126 15.5595 14.2556C15.7044 13.9466 15.7646 13.4517 15.6798 13.2739C15.6251 13.1563 15.4775 13.0716 14.7255 12.7216C14.0611 12.4099 13.9025 12.3634 13.7247 12.4372C13.6728 12.4591 13.5525 12.5821 13.4103 12.7626C13.2845 12.9212 13.1396 13.0989 13.0904 13.1563L13.0001 13.2575L12.7212 13.1235C12.0814 12.8145 11.4032 12.2267 10.9056 11.5513L10.747 11.338L10.9329 11.122C11.1736 10.8431 11.2911 10.627 11.2911 10.4548C11.2911 10.2798 10.7607 8.98642 10.5993 8.76767C10.479 8.60634 10.2521 8.57626 9.81731 8.6665Z" fill="#141414"/>
</g>
<defs>
<clipPath id="clip0_1752_1881">
<rect width="14" height="14" fill="white" transform="translate(5 5)"/>
</clipPath>
</defs>
</svg>
