<svg width="29" height="29" viewBox="0 0 29 29" fill="none" xmlns="http://www.w3.org/2000/svg">
<g clip-path="url(#clip0_1737_1316)">
<path d="M8.66511 21.07C10.5705 22.6688 13.4061 22.4207 15.0049 20.5154L21.0529 13.3076L20.1128 12.5187L14.0647 19.7265C12.9024 21.1116 10.8391 21.2921 9.45398 20.1299C8.06884 18.9676 7.88832 16.9043 9.0506 15.5191L15.6246 7.6846C15.9733 7.26903 16.4728 7.009 17.0132 6.96172C17.5536 6.91444 18.0907 7.08378 18.5063 7.43249C18.9218 7.78119 19.1819 8.2807 19.2291 8.82112C19.2764 9.36155 19.1071 9.89862 18.7584 10.3142L13.2363 16.8952C12.947 17.2399 12.4283 17.2853 12.0836 16.9961C11.7389 16.7068 11.6935 16.1881 11.9827 15.8434L16.9789 9.88912L16.0388 9.10024L11.0426 15.0545C10.6939 15.4701 10.5245 16.0071 10.5718 16.5476C10.6191 17.088 10.8791 17.5875 11.2947 17.9362C11.7103 18.2849 12.2473 18.4542 12.7878 18.407C13.3282 18.3597 13.8277 18.0997 14.1764 17.6841L19.6985 11.1031C20.8608 9.71792 20.6803 7.65462 19.2951 6.49234C17.91 5.33006 15.8467 5.51058 14.6844 6.89573L8.11045 14.7303C6.51167 16.6356 6.75975 19.4712 8.66511 21.07Z" fill="#141414"/>
</g>
<defs>
<clipPath id="clip0_1737_1316">
<rect width="20" height="20" fill="white" transform="translate(12.8555) rotate(40)"/>
</clipPath>
</defs>
</svg>
