<svg width="360" height="202" viewBox="0 0 360 202" fill="none" xmlns="http://www.w3.org/2000/svg">
<g clip-path="url(#clip0_1686_1220)">
<rect width="360" height="202" rx="10" fill="#141414"/>
<g clip-path="url(#clip1_1686_1220)">
<path d="M105.332 120H98.5699L95.0515 110.5H79.927L76.3173 120H69.5547L83.8567 82H91.0762L105.332 120ZM93.4522 104.765L87.5121 88.2166L81.4806 104.765H93.4522Z" fill="white"/>
<path d="M142.668 120H136.341L115.443 92.1567V120H108.445V82H115.299L135.67 109.099V82H142.668V120Z" fill="white"/>
<path d="M162.438 120C158.459 120 154.85 119.126 151.611 117.379C148.372 115.632 146.429 112.968 145.781 109.343H152.814C153.323 111.221 154.48 112.618 156.238 113.536C157.997 114.453 160.079 114.933 162.392 114.933C164.891 114.933 167.065 114.497 168.824 113.579C170.582 112.662 171.461 111.352 171.461 109.605C171.461 108.163 170.86 107.028 169.657 106.198C168.454 105.368 166.742 104.713 164.474 104.276L156.932 102.791C153.879 102.267 151.472 101.175 149.668 99.5586C147.863 97.9425 146.984 95.7149 146.984 92.9195C146.984 90.6483 147.678 88.6828 149.02 87.0667C150.362 85.4506 152.213 84.1839 154.526 83.3103C156.84 82.4368 159.385 82 162.207 82C165.353 82 168.083 82.5241 170.351 83.5724C172.618 84.6207 174.422 85.9747 175.672 87.5908C176.967 89.2506 177.708 91.0414 177.939 92.9632H171.045C170.675 90.9103 169.703 89.4253 168.176 88.508C166.649 87.5908 164.659 87.154 162.3 87.154C160.079 87.154 158.182 87.5908 156.608 88.5517C155.035 89.5126 154.249 90.7793 154.249 92.4828C154.249 95.1034 156.331 96.7632 160.541 97.4184L167.852 98.9034C174.931 100.214 178.448 103.795 178.448 109.692C178.448 112.749 176.921 115.239 173.913 117.161C170.906 119.083 167.065 120 162.392 120H162.438Z" fill="white"/>
<path d="M200.672 120H194.008V87.7788H181.555V82H212.666V87.7788H200.718V120H200.672Z" fill="white"/>
<path d="M234.472 119.956C230.772 119.956 227.505 119.258 224.718 117.819C221.931 116.379 219.673 114.285 218.136 111.493C216.55 108.7 215.781 105.254 215.781 101.109C215.781 95.0011 217.511 90.2893 220.922 86.9736C224.334 83.6579 228.898 82 234.52 82C240.142 82 244.85 83.7015 248.166 87.1481C251.481 90.5947 253.115 95.2193 253.115 101.065C253.115 106.912 251.433 111.711 248.118 115.026C244.754 118.342 240.238 120 234.568 120L234.472 119.956ZM234.472 114.634C241.679 114.634 245.331 110.14 245.427 101.153C245.427 96.3972 244.466 92.907 242.544 90.682C240.622 88.4569 237.931 87.3226 234.472 87.3226C231.012 87.3226 228.322 88.4133 226.352 90.682C224.43 92.907 223.421 96.3972 223.421 101.153C223.421 105.908 224.382 109.224 226.352 111.362C228.274 113.543 231.012 114.59 234.472 114.59V114.634Z" fill="white"/>
<path d="M316.844 119.956H290.445V82H316.482V87.4661H297.158V98.1358H314.214V103.558H297.113V114.446H316.89V120L316.844 119.956Z" fill="white"/>
<path d="M287.329 120.001H280.573L271.773 104.618L275.902 99.418L287.329 120.001Z" fill="white"/>
<path d="M275.368 95.8501L270.407 101.592L268.645 103.652L263.266 109.875V120H256.219V82H263.266V100.452L279.448 82H287.33L276.805 94.1845L275.368 95.8501Z" fill="white"/>
<path d="M56.9123 98.3483L60.2222 103.871L60.1769 103.915V120H53.5117V103.915L40 82H47.1639L55.8241 96.5513L56.9123 98.3483Z" fill="white"/>
<path d="M74.2196 82L62.0798 101L58.6641 95.553L66.8803 82H74.2196Z" fill="white"/>
</g>
</g>
<defs>
<clipPath id="clip0_1686_1220">
<rect width="360" height="202" rx="10" fill="white"/>
</clipPath>
<clipPath id="clip1_1686_1220">
<rect width="280" height="38" fill="white" transform="translate(40 82)"/>
</clipPath>
</defs>
</svg>
