<svg width="84" height="101" viewBox="0 0 84 101" fill="none" xmlns="http://www.w3.org/2000/svg">
<path d="M51.8147 40.6605H32.7682V40.6681L34.4622 43.5706L46.8241 43.5706L31.8448 58.4709L33.9128 60.53L51.807 42.712H51.8147V40.6605Z" fill="#606060"/>
<path d="M51.8147 59.8011V44.6068L49.0248 47.534V58.1044L51.8074 59.8011H51.8147Z" fill="#606060"/>
<path d="M12.4601 40.4123L8.57793 38.5196L10.1454 35.3446L14.0275 37.2373L13.7123 37.8759L10.4376 36.2793L9.50068 38.1772L12.7753 39.7737L12.4601 40.4123Z" fill="#606060"/>
<path d="M15.6306 34.9814C15.3873 35.3356 15.0967 35.5869 14.7588 35.7353C14.4224 35.8816 14.0641 35.9278 13.6841 35.8739C13.3041 35.82 12.9298 35.6685 12.5611 35.4193C12.1857 35.1656 11.9051 34.8729 11.7192 34.5412C11.5333 34.2094 11.4503 33.8619 11.4703 33.4986C11.4881 33.1338 11.6164 32.7776 11.8551 32.43C12.0999 32.0737 12.3912 31.8213 12.7292 31.6728C13.0649 31.5229 13.422 31.476 13.8005 31.5321C14.1783 31.5845 14.5516 31.7352 14.9203 31.9844C15.2934 32.2366 15.5748 32.5282 15.7644 32.8592C15.9518 33.1888 16.0378 33.5367 16.0222 33.903C16.0044 34.2678 15.8738 34.6273 15.6306 34.9814ZM15.0709 34.6032C15.3247 34.2336 15.3899 33.8751 15.2665 33.5276C15.1431 33.1802 14.8849 32.8736 14.4919 32.608C14.0879 32.335 13.704 32.2092 13.3401 32.2306C12.974 32.2506 12.6656 32.4431 12.4148 32.8083C12.2441 33.0568 12.1599 33.2995 12.1622 33.5361C12.1645 33.7728 12.2378 33.9979 12.3821 34.2114C12.5264 34.4248 12.7289 34.6196 12.9894 34.7957C13.3912 35.0672 13.777 35.1927 14.1468 35.172C14.5166 35.1514 14.8246 34.9618 15.0709 34.6032Z" fill="#606060"/>
<path d="M18.4035 31.506C18.1061 31.8274 17.7812 32.0354 17.4287 32.13C17.076 32.2209 16.7181 32.2096 16.3548 32.0963C15.9916 31.9829 15.6455 31.7804 15.3165 31.4889C14.9868 31.1825 14.751 30.8549 14.6092 30.5062C14.4672 30.1537 14.4295 29.8004 14.496 29.4461C14.5625 29.0919 14.7427 28.7561 15.0364 28.4386C15.3465 28.1036 15.6959 27.8907 16.0846 27.8001C16.4751 27.7075 16.8524 27.7508 17.2165 27.9299L16.8946 28.5895C16.6476 28.4878 16.403 28.4659 16.1608 28.5237C15.9204 28.5795 15.7105 28.7044 15.531 28.8984C15.3297 29.1159 15.215 29.3417 15.187 29.5759C15.1571 29.8083 15.2001 30.0402 15.3161 30.2717C15.4301 30.5014 15.6016 30.722 15.8305 30.9334C16.1892 31.2518 16.5514 31.431 16.9172 31.471C17.2828 31.5072 17.6116 31.3676 17.9035 31.0522C18.0957 30.8445 18.208 30.629 18.2402 30.406C18.2705 30.1811 18.2276 29.951 18.1114 29.7157L18.7401 29.3129C18.9363 29.693 19.0054 30.0712 18.9474 30.4476C18.8894 30.824 18.7081 31.1768 18.4035 31.506Z" fill="#606060"/>
<path d="M20.1071 29.524L17.4012 26.1648L17.8827 25.7855L21.2725 27.3757L20.4632 23.7528L20.9446 23.3735L23.6506 26.7328L23.1093 27.1591L21.3329 24.9538L22.0267 28.0119L21.7309 28.2449L18.872 26.8924L20.6484 29.0977L20.1071 29.524Z" fill="#606060"/>
<path d="M26.1368 25.4274C25.7613 25.6372 25.3889 25.734 25.0194 25.7179C24.6522 25.7004 24.3097 25.5838 23.992 25.368C23.6742 25.1522 23.4048 24.8514 23.1836 24.4658C22.9585 24.0732 22.8358 23.6874 22.8155 23.3084C22.7952 22.9294 22.8745 22.5817 23.0533 22.2653C23.2308 21.9466 23.5037 21.6843 23.8722 21.4784C24.25 21.2673 24.6236 21.1699 24.9931 21.186C25.3613 21.1998 25.7031 21.3153 26.0185 21.5324C26.3349 21.7459 26.6037 22.0455 26.8249 22.4311C27.0487 22.8214 27.1725 23.2066 27.1965 23.5866C27.2191 23.9642 27.1423 24.3136 26.9661 24.6346C26.7887 24.9533 26.5122 25.2176 26.1368 25.4274ZM25.8011 24.842C26.1928 24.6231 26.4101 24.3309 26.453 23.9654C26.4959 23.5999 26.3995 23.2116 26.1638 22.8005C25.9214 22.3779 25.632 22.096 25.2954 21.9547C24.9575 21.8112 24.595 21.8475 24.2079 22.0638C23.9444 22.2111 23.7613 22.3911 23.6586 22.604C23.5559 22.8169 23.5222 23.0507 23.5574 23.3055C23.5927 23.5602 23.6884 23.8239 23.8447 24.0964C24.0857 24.5167 24.377 24.7991 24.7186 24.9437C25.0601 25.0883 25.421 25.0544 25.8011 24.842Z" fill="#606060"/>
<path d="M29.5075 23.6705L28.1529 20.2644L26.7472 20.8066L26.5082 20.2055L29.9851 18.8645L30.2241 19.4656L28.8184 20.0077L30.173 23.4138L29.5075 23.6705Z" fill="#606060"/>
<path d="M34.6493 22.193C34.2537 22.2843 33.8973 22.2641 33.58 22.1325C33.2621 21.9982 32.9927 21.7803 32.772 21.4789C32.5532 21.1742 32.3938 20.8135 32.2937 20.3967C32.1924 19.9747 32.1706 19.5809 32.2283 19.2151C32.2886 18.8487 32.4311 18.5385 32.6558 18.2845C32.8831 18.0299 33.1945 17.8569 33.5901 17.7656C33.9805 17.6755 34.3396 17.695 34.6673 17.8243C34.997 17.9504 35.2774 18.1629 35.5086 18.462C35.7397 18.7611 35.9056 19.1203 36.0064 19.5397C36.1071 19.959 36.1221 20.3531 36.0513 20.7219C35.9806 21.0907 35.827 21.4062 35.5905 21.6684C35.3561 21.9274 35.0423 22.1023 34.6493 22.193ZM33.1287 24.3882L31.6739 18.3308L32.2947 18.1875L33.036 21.2745L33.1141 21.2564L33.8275 24.2269L33.1287 24.3882ZM34.4114 21.5799C34.6899 21.5156 34.9035 21.3926 35.0521 21.2107C35.2007 21.0289 35.292 20.8084 35.3259 20.5492C35.3591 20.2874 35.34 20.0077 35.2685 19.71C35.1976 19.4149 35.0881 19.1588 34.9398 18.9417C34.7941 18.7239 34.6108 18.5668 34.3898 18.4703C34.1714 18.3732 33.9191 18.3576 33.6328 18.4237C33.3595 18.4868 33.1493 18.6064 33.002 18.7824C32.8541 18.9559 32.7646 19.1719 32.7333 19.4305C32.7014 19.6865 32.7227 19.9698 32.7973 20.2804C32.8707 20.5859 32.9792 20.8491 33.1229 21.07C33.2686 21.2877 33.449 21.4442 33.6641 21.5393C33.8787 21.6318 34.1278 21.6454 34.4114 21.5799Z" fill="#606060"/>
<path d="M38.9834 21.5342C38.5603 21.5701 38.1819 21.5086 37.8483 21.3499C37.5171 21.1882 37.2484 20.9478 37.0423 20.6285C36.8359 20.3066 36.7122 19.9216 36.6712 19.4735C36.6283 19.0041 36.6777 18.5911 36.8194 18.2343C36.9609 17.8749 37.1774 17.5893 37.4691 17.3775C37.7633 17.1629 38.1192 17.0378 38.537 17.0024C38.9707 16.9656 39.3483 17.0338 39.6698 17.207C39.994 17.3799 40.2488 17.6442 40.4341 18C40.6222 18.3555 40.7288 18.7887 40.7541 19.2997L40.0356 19.3606L40.0123 19.106C39.9561 18.579 39.8124 18.1943 39.5811 17.9521C39.3495 17.7071 39.0289 17.602 38.6191 17.6368C38.18 17.674 37.8589 17.8429 37.6558 18.1434C37.4526 18.4438 37.3751 18.8566 37.4231 19.3817C37.4693 19.8882 37.6196 20.2709 37.8739 20.53C38.1282 20.789 38.4669 20.9006 38.89 20.8647C39.1747 20.8406 39.4162 20.7546 39.6146 20.6068C39.8129 20.4591 39.9608 20.2581 40.0582 20.004L40.7622 20.1808C40.6292 20.5743 40.4033 20.89 40.0846 21.1282C39.7682 21.3635 39.4011 21.4988 38.9834 21.5342ZM37.2017 19.6009L37.1498 19.0321L40.3349 18.762L40.3869 19.3308L37.2017 19.6009Z" fill="#606060"/>
<path d="M42.7562 21.3229L42.9611 17.6606L41.4582 17.5709L41.4944 16.9247L45.2117 17.1465L45.1756 17.7928L43.6726 17.7031L43.4677 21.3654L42.7562 21.3229Z" fill="#606060"/>
<path d="M46.115 21.5797L46.9761 17.3492L47.678 17.4931L47.3648 19.0244L48.2784 19.2118C48.4012 19.237 48.5262 19.2653 48.6532 19.2968C48.7802 19.3283 48.8889 19.3629 48.9792 19.4004C49.1903 19.4872 49.3674 19.5997 49.5108 19.738C49.6541 19.8762 49.7531 20.0447 49.8077 20.2436C49.8629 20.44 49.8635 20.67 49.8096 20.9337C49.7348 21.2992 49.5801 21.5694 49.3455 21.7444C49.1141 21.9173 48.8382 22.0076 48.518 22.0154C48.4086 22.0174 48.2852 22.0084 48.1476 21.9884C48.0133 21.9663 47.8859 21.9429 47.7657 21.9182L46.115 21.5797ZM46.9307 21.1471L47.8952 21.3449C47.9736 21.361 48.0617 21.3764 48.1595 21.391C48.2573 21.4056 48.3462 21.4102 48.4263 21.4049C48.5676 21.3931 48.7023 21.3404 48.8304 21.247C48.961 21.1541 49.0483 21.0006 49.092 20.7865C49.1364 20.5698 49.1183 20.392 49.0377 20.253C48.9598 20.1146 48.841 20.01 48.6811 19.9391C48.6091 19.9053 48.5318 19.8772 48.4492 19.8548C48.3666 19.8325 48.2874 19.8135 48.2116 19.798L47.2471 19.6001L46.9307 21.1471Z" fill="#606060"/>
<path d="M52.3732 23.136L54.0716 19.1636L57.3317 20.5427L55.6333 24.515L54.9776 24.2377L56.4103 20.8869L54.4616 20.0626L53.0289 23.4133L52.3732 23.136Z" fill="#606060"/>
<path d="M58.1541 26.0711C57.8069 25.8624 57.5666 25.6013 57.4333 25.2876C57.3013 24.9717 57.2633 24.6298 57.3192 24.2619C57.3788 23.893 57.5205 23.5252 57.7442 23.1585C57.9708 22.7872 58.2342 22.4911 58.5345 22.27C58.8371 22.0504 59.1587 21.9277 59.4991 21.9019C59.8418 21.8775 60.1867 21.9697 60.5339 22.1784C60.8766 22.3844 61.1191 22.6469 61.2616 22.966C61.4078 23.2842 61.4575 23.6301 61.4107 24.0035C61.3639 24.377 61.2279 24.7482 61.0028 25.1172C60.7777 25.4862 60.5092 25.7777 60.1975 25.9919C59.8857 26.2061 59.5525 26.3249 59.1979 26.3483C58.847 26.3709 58.499 26.2785 58.1541 26.0711ZM55.5131 26.5849L58.765 21.2552L59.3098 21.5827L57.6526 24.2988L57.7211 24.34L56.1264 26.9536L55.5131 26.5849ZM58.4185 25.4689C58.6629 25.6159 58.9026 25.6759 59.1376 25.649C59.3725 25.6221 59.5939 25.5279 59.8017 25.3665C60.0109 25.2027 60.1954 24.9898 60.3552 24.7279C60.5136 24.4683 60.6168 24.2096 60.6647 23.952C60.7149 23.6958 60.6953 23.4568 60.6058 23.2349C60.5187 23.0144 60.3495 22.8287 60.0982 22.6776C59.8584 22.5335 59.6235 22.4732 59.3936 22.4969C59.1651 22.5183 58.9481 22.6105 58.7426 22.7733C58.5385 22.9339 58.353 23.1509 58.1862 23.4242C58.0223 23.693 57.9133 23.9559 57.8595 24.213C57.8093 24.4693 57.8273 24.7058 57.9136 24.9226C58.0012 25.1372 58.1695 25.3193 58.4185 25.4689Z" fill="#606060"/>
<path d="M61.7014 28.5703C61.3692 28.299 61.1446 27.9899 61.0278 27.6429C60.913 27.2976 60.9007 26.9395 60.9908 26.5686C61.0809 26.1977 61.2685 25.8408 61.5535 25.4981C61.8437 25.1491 62.164 24.8972 62.5145 24.7423C62.865 24.5874 63.2216 24.5357 63.5842 24.5871C63.9485 24.6364 64.2936 24.7942 64.6197 25.0604C64.954 25.3334 65.1796 25.6433 65.2964 25.9903C65.415 26.3352 65.4282 26.6923 65.3359 27.0615C65.2475 27.4304 65.0608 27.7862 64.7758 28.129C64.4874 28.4759 64.1681 28.7286 63.8179 28.8872C63.4695 29.0438 63.1122 29.0985 62.7462 29.0512C62.3819 29.0018 62.0336 28.8415 61.7014 28.5703ZM62.134 28.0499C62.4807 28.333 62.8342 28.4287 63.1946 28.3369C63.5549 28.2452 63.887 28.0167 64.1908 27.6513C64.5031 27.2757 64.6657 26.9071 64.6788 26.5456C64.6935 26.182 64.5296 25.8604 64.1871 25.5807C63.9539 25.3903 63.7185 25.286 63.4808 25.2677C63.2431 25.2494 63.0103 25.3022 62.7824 25.4263C62.5546 25.5504 62.3399 25.7335 62.1385 25.9757C61.8279 26.3493 61.6654 26.7197 61.6511 27.087C61.6367 27.4543 61.7977 27.7753 62.134 28.0499Z" fill="#606060"/>
<path d="M64.999 31.649C64.7121 31.3376 64.5307 31.0028 64.4547 30.6445C64.3826 30.2864 64.4118 29.93 64.5426 29.5754C64.6753 29.2189 64.9091 28.8895 65.2442 28.5872C65.5951 28.2706 65.9571 28.0606 66.3302 27.9571C66.7052 27.8519 67.0668 27.8502 67.4149 27.9522C67.7668 28.0543 68.0844 28.2591 68.3677 28.5666C68.6618 28.8858 68.8374 29.2242 68.8944 29.5816C68.9532 29.941 68.8963 30.3008 68.7235 30.6611C68.5526 31.0233 68.2696 31.3683 67.8745 31.6961L67.3873 31.1673L67.5776 30.9956C67.9667 30.6338 68.1881 30.2888 68.2416 29.9607C68.2972 29.6309 68.186 29.3152 67.9081 29.0136C67.6103 28.6904 67.2788 28.5394 66.9135 28.5606C66.5481 28.5818 66.1692 28.7695 65.7766 29.1237C65.3979 29.4653 65.1821 29.8143 65.1291 30.1706C65.0761 30.5268 65.1931 30.8606 65.48 31.172C65.6731 31.3816 65.8895 31.5199 66.1292 31.587C66.3689 31.654 66.6205 31.6493 66.8841 31.5729L67.1715 32.2336C66.7743 32.366 66.3828 32.3785 65.997 32.2711C65.615 32.1638 65.2823 31.9565 64.999 31.649ZM65.4655 29.0816L65.8908 28.6979L68.0507 31.0422L67.6255 31.4259L65.4655 29.0816Z" fill="#606060"/>
<path d="M66.8473 33.534L70.4453 31.1303L70.8518 31.7231L69.1205 32.8821L71.8748 33.2152L72.3965 33.976L69.5214 33.6084L68.9272 36.5675L68.3649 35.7474L68.9874 32.9712L67.2561 34.1302L66.8473 33.534Z" fill="#606060"/>
<path d="M69.8618 38.2911L73.1776 36.6984L72.5128 35.3522L73.0979 35.0712L74.7422 38.4008L74.1571 38.6819L73.4923 37.3357L70.1766 38.9284L69.8618 38.2911Z" fill="#606060"/>
<path d="M71.1798 59.4544L75.105 61.2562L73.6124 64.4671L69.6872 62.6652L69.9874 62.0194L73.2984 63.5393L74.1906 61.62L70.8796 60.1002L71.1798 59.4544Z" fill="#606060"/>
<path d="M68.142 64.9613C68.3768 64.6015 68.6615 64.3435 68.9958 64.1872C69.3287 64.0332 69.6858 63.9786 70.0669 64.0237C70.4481 64.0687 70.8259 64.2114 71.2003 64.4519C71.5815 64.6968 71.8689 64.9829 72.0625 65.3102C72.2561 65.6376 72.3472 65.9831 72.3357 66.3468C72.3265 66.7119 72.2066 67.071 71.9761 67.424C71.7397 67.786 71.4544 68.0451 71.12 68.2014C70.7879 68.3591 70.432 68.4144 70.0523 68.3671C69.6734 68.3235 69.2967 68.1815 68.9223 67.941C68.5433 67.6976 68.2552 67.4126 68.0579 67.0861C67.8628 66.761 67.7688 66.4151 67.7758 66.0486C67.785 65.6834 67.9071 65.321 68.142 64.9613ZM68.7104 65.3264C68.4653 65.7017 68.4085 66.0617 68.54 66.4062C68.6715 66.7507 68.9368 67.0512 69.3359 67.3075C69.7462 67.5711 70.133 67.6879 70.4962 67.658C70.8617 67.6295 71.1655 67.4298 71.4077 67.0589C71.5725 66.8064 71.651 66.5619 71.6432 66.3253C71.6353 66.0888 71.5568 65.8655 71.4075 65.6554C71.2582 65.4453 71.0513 65.2553 70.7867 65.0854C70.3786 64.8233 69.99 64.7069 69.6208 64.7361C69.2516 64.7654 68.9482 64.9621 68.7104 65.3264Z" fill="#606060"/>
<path d="M65.4488 68.4985C65.7385 68.1703 66.0585 67.9548 66.4087 67.8519C66.7591 67.7529 67.1172 67.7558 67.483 67.8606C67.8488 67.9655 68.1995 68.1598 68.5353 68.4436C68.8721 68.7423 69.1155 69.0643 69.2654 69.4096C69.4156 69.7586 69.4616 70.111 69.4034 70.4667C69.3452 70.8224 69.173 71.1624 68.8867 71.4865C68.5846 71.8288 68.2403 72.0497 67.8538 72.1494C67.4656 72.251 67.0874 72.2166 66.7192 72.046L67.0255 71.3791C67.2749 71.4749 67.52 71.4912 67.7607 71.4278C67.9997 71.3664 68.2067 71.2366 68.3816 71.0385C68.5777 70.8163 68.687 70.5879 68.7095 70.3531C68.7341 70.1201 68.6856 69.8892 68.5642 69.6605C68.4448 69.4335 68.2682 69.217 68.0344 69.0109C67.6684 68.701 67.3021 68.5303 66.9355 68.4989C66.5691 68.4711 66.2437 68.6184 65.9592 68.9406C65.7719 69.1527 65.6648 69.3707 65.6377 69.5944C65.6127 69.82 65.661 70.049 65.7827 70.2815L65.1637 70.6989C64.9586 70.3235 64.8806 69.9469 64.9298 69.5693C64.9789 69.1916 65.1519 68.8347 65.4488 68.4985Z" fill="#606060"/>
<path d="M63.7924 70.5175L66.5764 73.8128L66.104 74.2032L62.6777 72.6925L63.5718 76.2955L63.0993 76.6859L60.3154 73.3906L60.8465 72.9517L62.6741 75.115L61.9088 72.074L62.199 71.8341L65.0889 73.1197L63.2613 70.9564L63.7924 70.5175Z" fill="#606060"/>
<path d="M57.8626 74.7519C58.2331 74.5335 58.6032 74.428 58.9729 74.4355C59.3404 74.4444 59.6855 74.5531 60.0083 74.7614C60.331 74.9698 60.6074 75.2642 60.8376 75.6446C61.0719 76.0318 61.2036 76.4146 61.2328 76.793C61.2619 77.1714 61.1908 77.5209 61.0195 77.8414C60.8496 78.1641 60.5828 78.4327 60.2193 78.6471C59.8466 78.8669 59.4754 78.9731 59.1056 78.9655C58.7372 78.9603 58.3927 78.8528 58.0723 78.6431C57.751 78.437 57.4752 78.1438 57.2451 77.7633C57.0121 77.3784 56.8793 76.9962 56.8464 76.6169C56.815 76.2399 56.8835 75.8888 57.0521 75.5638C57.2221 75.241 57.4922 74.9704 57.8626 74.7519ZM58.212 75.3294C57.8255 75.5573 57.6151 75.8545 57.5808 76.2209C57.5465 76.5873 57.652 76.9732 57.8973 77.3787C58.1495 77.7955 58.4455 78.0706 58.7853 78.204C59.1265 78.3397 59.488 78.2949 59.8699 78.0697C60.1299 77.9163 60.3087 77.7321 60.4064 77.5168C60.5041 77.3016 60.5323 77.0671 60.4911 76.8132C60.4499 76.5594 60.348 76.298 60.1853 76.0292C59.9345 75.6147 59.6367 75.3391 59.2918 75.2025C58.947 75.0659 58.587 75.1082 58.212 75.3294Z" fill="#606060"/>
<path d="M54.5302 76.5862L55.9644 79.9599L57.357 79.3852L57.6101 79.9805L54.1657 81.402L53.9126 80.8066L55.3051 80.2319L53.8709 76.8583L54.5302 76.5862Z" fill="#606060"/>
<path d="M49.4223 78.1855C49.8157 78.085 50.1725 78.0969 50.4928 78.2212C50.8138 78.348 51.0881 78.5595 51.3159 78.8558C51.5418 79.1553 51.7096 79.5123 51.8195 79.9266C51.9307 80.3461 51.9618 80.7393 51.9126 81.1064C51.8609 81.474 51.7258 81.7875 51.5071 82.0467C51.2859 82.3065 50.9786 82.4867 50.5853 82.5872C50.1971 82.6864 49.8377 82.6751 49.5071 82.5535C49.1745 82.4351 48.8892 82.2291 48.6511 81.9355C48.4129 81.6419 48.2386 81.2866 48.1281 80.8697C48.0175 80.4528 47.9933 80.0591 48.0553 79.6888C48.1174 79.3185 48.2635 78.9995 48.4937 78.7319C48.722 78.4674 49.0316 78.2853 49.4223 78.1855ZM50.8909 75.9555L52.4876 81.9775L51.8705 82.1352L51.0567 79.0663L50.9791 79.0861L50.1961 76.133L50.8909 75.9555ZM49.6746 78.7929C49.3977 78.8636 49.1871 78.9916 49.0428 79.1769C48.8985 79.3621 48.8124 79.5847 48.7846 79.8446C48.7575 80.1071 48.7832 80.3863 48.8617 80.6822C48.9395 80.9756 49.0551 81.2291 49.2084 81.4428C49.3592 81.657 49.5461 81.8099 49.7693 81.9012C49.9899 81.9933 50.2425 82.0029 50.5271 81.9302C50.7988 81.8608 51.0062 81.7364 51.1493 81.5569C51.2931 81.3801 51.3775 81.162 51.4028 80.9028C51.4286 80.6461 51.4006 80.3633 51.3188 80.0545C51.2382 79.7509 51.1235 79.4903 50.9747 79.2727C50.8239 79.0585 50.6399 78.9062 50.4226 78.8161C50.206 78.7286 49.9566 78.7208 49.6746 78.7929Z" fill="#606060"/>
<path d="M45.1055 78.9417C45.5276 78.896 45.9073 78.9486 46.2446 79.0996C46.5794 79.2535 46.8537 79.4877 47.0673 79.802C47.2812 80.1191 47.4139 80.5011 47.4654 80.9482C47.5193 81.4165 47.4796 81.8306 47.3463 82.1905C47.2134 82.5531 47.0036 82.8437 46.717 83.0622C46.428 83.2837 46.0751 83.417 45.6583 83.4621C45.2256 83.5089 44.8465 83.4495 44.521 83.2839C44.1928 83.1185 43.9319 82.8602 43.7383 82.5088C43.542 82.1578 43.4252 81.7271 43.3879 81.2169L44.1047 81.1393L44.1339 81.3932C44.2025 81.9188 44.3553 82.3001 44.5922 82.5369C44.8294 82.7764 45.1525 82.874 45.5613 82.8298C45.9993 82.7823 46.3164 82.606 46.5124 82.3009C46.7084 81.9958 46.7762 81.5813 46.7159 81.0575C46.6578 80.5522 46.4985 80.173 46.2382 79.9199C45.9779 79.6669 45.6367 79.5632 45.2146 79.6089C44.9306 79.6396 44.6911 79.7312 44.4963 79.8835C44.3015 80.0358 44.1584 80.2402 44.067 80.4965L43.3591 80.3361C43.4828 79.9397 43.7012 79.6187 44.0142 79.3732C44.325 79.1306 44.6887 78.9868 45.1055 78.9417ZM46.932 80.8332L46.9974 81.4006L43.8196 81.7447L43.7543 81.1772L46.932 80.8332Z" fill="#606060"/>
<path d="M41.3428 79.2418L41.2239 82.9081L42.7284 82.9628L42.7075 83.6098L38.9862 83.4745L39.0071 82.8275L40.5117 82.8822L40.6306 79.2159L41.3428 79.2418Z" fill="#606060"/>
<path d="M37.9713 79.0685L37.2097 83.3182L36.5048 83.1906L36.7819 81.6523L35.8643 81.4863C35.7408 81.4639 35.6153 81.4385 35.4876 81.41C35.3599 81.3814 35.2504 81.3495 35.1592 81.314C34.9462 81.2321 34.7665 81.1238 34.6199 80.9889C34.4734 80.8541 34.3705 80.6878 34.3112 80.4902C34.2515 80.2953 34.2455 80.0653 34.2932 79.8004C34.3593 79.4332 34.5076 79.1594 34.738 78.979C34.9654 78.8008 35.239 78.7041 35.559 78.6888C35.6682 78.6842 35.7918 78.6904 35.9298 78.7072C36.0647 78.7262 36.1925 78.7466 36.3132 78.7685L37.9713 79.0685ZM37.1661 79.52L36.1972 79.3446C36.1185 79.3304 36.03 79.3171 35.9319 79.3048C35.8338 79.2924 35.7448 79.2899 35.6649 79.2971C35.5239 79.3122 35.3905 79.3679 35.2647 79.4643C35.1363 79.5603 35.0527 79.7158 35.0139 79.9308C34.9747 80.1485 34.997 80.3259 35.0807 80.4629C35.1619 80.5995 35.2831 80.7013 35.4446 80.7684C35.5174 80.8006 35.5953 80.8269 35.6784 80.8473C35.7615 80.8678 35.8411 80.8849 35.9172 80.8987L36.8861 81.074L37.1661 79.52Z" fill="#606060"/>
<path d="M31.6839 77.6545L30.0791 81.6656L26.7877 80.3628L28.3925 76.3517L29.0545 76.6137L27.7009 79.9971L29.6682 80.7759L31.0219 77.3924L31.6839 77.6545Z" fill="#606060"/>
<path d="M25.8343 74.8512C26.1863 75.0518 26.4327 75.3073 26.5733 75.6177C26.7126 75.9305 26.7586 76.2714 26.7114 76.6406C26.6604 77.0108 26.5274 77.3818 26.3123 77.7536C26.0946 78.1301 25.8382 78.4323 25.5431 78.6603C25.2457 78.887 24.9272 79.0171 24.5875 79.0508C24.2454 79.0832 23.8984 78.9991 23.5464 78.7985C23.1991 78.6006 22.9504 78.3438 22.8005 78.0281C22.647 77.7133 22.5892 77.3687 22.6272 76.9943C22.6652 76.6198 22.7925 76.2455 23.0089 75.8714C23.2253 75.4972 23.4868 75.1995 23.7935 74.9781C24.1001 74.7567 24.4304 74.6301 24.7844 74.5984C25.1347 74.5677 25.4847 74.652 25.8343 74.8512ZM28.4625 74.276L25.3364 79.6802L24.7841 79.3655L26.3772 76.6114L26.3077 76.5719L27.8407 73.9217L28.4625 74.276ZM25.5841 75.4594C25.3363 75.3183 25.0953 75.2638 24.8611 75.2962C24.6268 75.3285 24.4077 75.4279 24.2038 75.5942C23.9985 75.7628 23.819 75.9799 23.6654 76.2455C23.5131 76.5087 23.416 76.7697 23.3742 77.0284C23.33 77.2857 23.3552 77.5242 23.4498 77.7439C23.5421 77.9623 23.7156 78.1441 23.9703 78.2893C24.2135 78.4278 24.4497 78.4825 24.679 78.4535C24.9069 78.4268 25.1217 78.3296 25.3233 78.162C25.5236 77.9967 25.7039 77.7754 25.8642 77.4983C26.0219 77.2258 26.1246 76.9603 26.1724 76.702C26.2166 76.4447 26.193 76.2086 26.1017 75.9939C26.0091 75.7814 25.8366 75.6033 25.5841 75.4594Z" fill="#606060"/>
<path d="M22.2296 72.4405C22.5681 72.7039 22.7998 73.0077 22.9247 73.3519C23.0476 73.6944 23.0683 74.0521 22.9869 74.425C22.9054 74.798 22.7263 75.1591 22.4494 75.5084C22.1675 75.864 21.8532 76.1234 21.5064 76.2864C21.1596 76.4494 20.8044 76.5095 20.4407 76.4665C20.0753 76.4257 19.7265 76.276 19.3943 76.0175C19.0538 75.7524 18.821 75.4478 18.696 75.1036C18.5694 74.7616 18.5479 74.4049 18.6314 74.0336C18.7112 73.6628 18.8895 73.3027 19.1664 72.9533C19.4466 72.5998 19.7599 72.3397 20.1063 72.1729C20.4509 72.0083 20.8068 71.9453 21.1738 71.9841C21.5392 72.0249 21.8911 72.177 22.2296 72.4405ZM21.8093 72.9707C21.4561 72.6958 21.1004 72.6085 20.7423 72.7086C20.3842 72.8087 20.0576 73.0449 19.7625 73.4172C19.459 73.8 19.3051 74.1723 19.3005 74.534C19.2943 74.8978 19.4657 75.2156 19.8147 75.4872C20.0522 75.6721 20.29 75.7709 20.5281 75.7837C20.7661 75.7965 20.9976 75.7382 21.2225 75.6088C21.4474 75.4795 21.6577 75.2914 21.8533 75.0445C22.1551 74.6638 22.3089 74.2897 22.3147 73.9221C22.3204 73.5546 22.152 73.2375 21.8093 72.9707Z" fill="#606060"/>
<path d="M18.8683 69.4325C19.1624 69.7371 19.3516 70.0676 19.436 70.424C19.5165 70.7804 19.4956 71.1373 19.3732 71.4949C19.2489 71.8544 19.0228 72.1891 18.6949 72.4991C18.3515 72.8238 17.9946 73.0423 17.624 73.1544C17.2516 73.2683 16.8901 73.2784 16.5397 73.1846C16.1855 73.0907 15.8632 72.8933 15.5728 72.5925C15.2713 72.2802 15.0878 71.9461 15.0224 71.5901C14.9552 71.2322 15.0037 70.8711 15.1679 70.5069C15.3303 70.1408 15.6052 69.7893 15.9925 69.4524L16.492 69.9697L16.3057 70.1458C15.9252 70.5166 15.712 70.8666 15.6661 71.1958C15.6183 71.5269 15.7369 71.84 16.0218 72.135C16.327 72.4511 16.662 72.5943 17.0268 72.5646C17.3915 72.5349 17.766 72.3385 18.1501 71.9752C18.5207 71.6248 18.7283 71.271 18.7729 70.9136C18.8175 70.5562 18.6928 70.2252 18.3986 69.9205C18.2007 69.7155 17.9811 69.5823 17.7399 69.5209C17.4987 69.4594 17.2472 69.4699 16.9855 69.5525L16.6827 68.8987C17.0767 68.7571 17.4678 68.7355 17.856 68.8339C18.2404 68.9322 18.5778 69.1317 18.8683 69.4325ZM18.4621 72.0101L18.046 72.4036L15.8316 70.1103L16.2478 69.7168L18.4621 72.0101Z" fill="#606060"/>
<path d="M16.9826 67.601L13.442 70.0878L13.0217 69.5046L14.7253 68.3057L11.9639 68.0368L11.4245 67.2883L14.3075 67.5888L14.8321 64.6168L15.4135 65.4236L14.8563 68.2134L16.56 67.0145L16.9826 67.601Z" fill="#606060"/>
<path d="M13.8439 62.9098L10.5664 64.5791L11.2627 65.9094L10.6843 66.204L8.96224 62.9136L9.54062 62.619L10.2368 63.9493L13.5143 62.28L13.8439 62.9098Z" fill="#606060"/>
<ellipse cx="8.87308" cy="50.5951" rx="1.99698" ry="1.98695" fill="#606060"/>
<ellipse cx="74.7793" cy="50.5951" rx="1.99698" ry="1.98695" fill="#606060"/>
</svg>
