<svg width="84" height="103" viewBox="0 0 84 103" fill="none" xmlns="http://www.w3.org/2000/svg">
<path d="M12.4187 41.6141L8.55348 39.6733L10.082 36.4848L13.9472 38.4256L13.6398 39.0669L10.3794 37.4298L9.46575 39.3357L12.7262 40.9728L12.4187 41.6141Z" fill="white"/>
<path d="M15.5588 36.0478C15.3214 36.4037 15.0363 36.6552 14.7034 36.8023C14.372 36.9472 14.0182 36.9907 13.642 36.9328C13.2657 36.8748 12.8942 36.7182 12.5274 36.463C12.154 36.2031 11.8739 35.9046 11.6871 35.5674C11.5004 35.2303 11.4152 34.8781 11.4318 34.5109C11.4462 34.1421 11.5698 33.7831 11.8028 33.4338C12.0417 33.0756 12.3275 32.823 12.6604 32.676C12.991 32.5273 13.3438 32.4831 13.7185 32.5432C14.0926 32.5996 14.463 32.7554 14.8298 33.0107C15.201 33.2691 15.4818 33.5665 15.6723 33.903C15.8605 34.2379 15.9486 34.5905 15.9364 34.9608C15.9221 35.3295 15.7962 35.6918 15.5588 36.0478ZM15.002 35.6603C15.2497 35.2889 15.311 34.9269 15.1859 34.5744C15.0608 34.2219 14.8028 33.9096 14.4118 33.6375C14.0098 33.3578 13.6291 33.2271 13.2695 33.2455C12.9077 33.2624 12.6044 33.4543 12.3596 33.8213C12.193 34.0711 12.1119 34.3157 12.1163 34.5551C12.1206 34.7944 12.1951 35.0227 12.3397 35.2399C12.4843 35.457 12.6862 35.6558 12.9454 35.8362C13.3452 36.1144 13.7278 36.2447 14.0933 36.2272C14.4587 36.2096 14.7616 36.0206 15.002 35.6603Z" fill="white"/>
<path d="M18.3213 32.4444C18.0306 32.7679 17.7119 32.9763 17.365 33.0694C17.018 33.1588 16.665 33.1445 16.3059 33.0266C15.9469 32.9088 15.604 32.7007 15.2772 32.4025C14.9497 32.089 14.7147 31.755 14.5721 31.4002C14.4293 31.0417 14.3893 30.6831 14.4521 30.3244C14.5149 29.9657 14.6899 29.6266 14.977 29.307C15.2801 28.9697 15.6229 28.7566 16.0055 28.6678C16.3898 28.5771 16.7622 28.624 17.1227 28.8085L16.8104 29.4748C16.566 29.3697 16.3247 29.3455 16.0863 29.4022C15.8498 29.4569 15.6437 29.5819 15.4683 29.7772C15.2715 29.9961 15.1603 30.2242 15.1345 30.4615C15.1068 30.6969 15.151 30.9324 15.2672 31.1681C15.3815 31.402 15.5523 31.627 15.7797 31.8433C16.1359 32.1689 16.4945 32.3535 16.8555 32.397C17.2163 32.4367 17.5394 32.2978 17.8247 31.9802C18.0126 31.7711 18.1216 31.5536 18.1517 31.3276C18.1797 31.0998 18.1356 30.8661 18.0192 30.6266L18.6359 30.2232C18.8324 30.6102 18.9035 30.9943 18.8493 31.3755C18.7951 31.7567 18.6191 32.1131 18.3213 32.4444Z" fill="white"/>
<path d="M20.0461 30.346L17.3652 26.9184L17.8371 26.5357L21.1816 28.1695L20.3658 24.4842L20.8376 24.1015L23.5185 27.529L22.9881 27.9593L21.2281 25.7092L21.9272 28.8199L21.6374 29.0551L18.8166 27.6655L20.5765 29.9157L20.0461 30.346Z" fill="white"/>
<path d="M26.0453 26.1073C25.6763 26.3196 25.3099 26.4172 24.9463 26.4001C24.5849 26.3816 24.2476 26.2624 23.9345 26.0425C23.6214 25.8225 23.3556 25.5164 23.1371 25.1241C22.9147 24.7248 22.7932 24.3325 22.7725 23.9474C22.7517 23.5623 22.829 23.2092 23.0043 22.8881C23.1783 22.5647 23.4464 22.2987 23.8085 22.0903C24.1799 21.8767 24.5473 21.7784 24.911 21.7956C25.2734 21.8104 25.61 21.9284 25.9208 22.1497C26.2327 22.3672 26.4978 22.6722 26.7162 23.0645C26.9373 23.4615 27.06 23.853 27.0843 24.2392C27.1074 24.623 27.0325 24.9777 26.8599 25.3036C26.6859 25.627 26.4143 25.8949 26.0453 26.1073ZM25.7137 25.5118C26.0988 25.2902 26.3121 24.9938 26.3535 24.6225C26.395 24.2513 26.2993 23.8566 26.0664 23.4384C25.8271 23.0085 25.5416 22.7215 25.2101 22.5773C24.8773 22.4307 24.5206 22.4669 24.1401 22.6858C23.8811 22.8349 23.7013 23.0174 23.6007 23.2335C23.5001 23.4496 23.4674 23.6871 23.5026 23.946C23.5378 24.2049 23.6326 24.473 23.7869 24.7502C24.025 25.1777 24.3122 25.4653 24.6487 25.6129C24.9851 25.7605 25.3401 25.7268 25.7137 25.5118Z" fill="white"/>
<path d="M29.4345 24.2555L28.1005 20.8011L26.7147 21.3515L26.4793 20.7419L29.907 19.3804L30.1424 19.99L28.7566 20.5405L30.0905 23.9949L29.4345 24.2555Z" fill="white"/>
<path d="M34.5829 22.6973C34.1918 22.7903 33.8395 22.7705 33.5261 22.6378C33.212 22.5024 32.9462 22.2824 32.7285 21.9778C32.5127 21.6699 32.3557 21.3052 32.2574 20.8838C32.1579 20.4571 32.137 20.0587 32.1946 19.6886C32.2548 19.3179 32.3961 19.0039 32.6186 18.7465C32.8436 18.4886 33.1517 18.3131 33.5429 18.2201C33.9289 18.1284 34.2837 18.1476 34.6074 18.2779C34.9331 18.4049 35.2099 18.6195 35.4379 18.9217C35.6659 19.2239 35.8294 19.5871 35.9283 20.0112C36.0272 20.4352 36.0414 20.8338 35.9709 21.207C35.9004 21.5802 35.7481 21.8996 35.514 22.1652C35.2818 22.4276 34.9715 22.605 34.5829 22.6973ZM33.0766 24.9204L31.648 18.7949L32.2618 18.649L32.9898 21.7706L33.067 21.7523L33.7675 24.7561L33.0766 24.9204ZM34.3487 22.0775C34.6241 22.012 34.8353 21.8872 34.9825 21.7031C35.1297 21.5189 35.2202 21.2957 35.2541 21.0334C35.2874 20.7686 35.2689 20.4856 35.1987 20.1846C35.1291 19.8862 35.0212 19.6272 34.875 19.4078C34.7313 19.1878 34.5504 19.0291 34.3321 18.9318C34.1165 18.8339 33.8671 18.8186 33.584 18.8859C33.3138 18.9501 33.1058 19.0714 32.96 19.2497C32.8136 19.4254 32.7247 19.6441 32.6934 19.9057C32.6614 20.1647 32.6821 20.4513 32.7554 20.7654C32.8274 21.0743 32.9343 21.3404 33.0759 21.5637C33.2196 21.7837 33.3977 21.9417 33.6102 22.0376C33.8221 22.1309 34.0682 22.1442 34.3487 22.0775Z" fill="white"/>
<path d="M38.9453 21.9856C38.5258 22.0222 38.1508 21.9606 37.8203 21.8008C37.4922 21.6381 37.2261 21.3959 37.0221 21.0741C36.8178 20.7496 36.6956 20.3614 36.6555 19.9094C36.6135 19.4361 36.6629 19.0194 36.8038 18.6594C36.9444 18.2968 37.1594 18.0085 37.4488 17.7946C37.7406 17.5777 38.0935 17.4512 38.5077 17.4151C38.9377 17.3775 39.312 17.4459 39.6305 17.6202C39.9517 17.7943 40.2039 18.0607 40.3873 18.4193C40.5733 18.7777 40.6785 19.2145 40.703 19.7299L39.9907 19.7921L39.968 19.5353C39.9128 19.0038 39.7707 18.616 39.5417 18.3718C39.3124 18.125 38.9947 18.0194 38.5884 18.0548C38.1532 18.0928 37.8347 18.2635 37.633 18.5668C37.4313 18.8701 37.3539 19.2865 37.4009 19.8161C37.4462 20.3269 37.5948 20.7128 37.8466 20.9738C38.0984 21.2348 38.434 21.347 38.8534 21.3104C39.1357 21.2857 39.3752 21.1988 39.572 21.0495C39.7688 20.9003 39.9156 20.6975 40.0125 20.441L40.7101 20.6186C40.5779 21.0156 40.3536 21.3344 40.0373 21.5749C39.7235 21.8125 39.3594 21.9494 38.9453 21.9856ZM37.1813 20.0374L37.1304 19.4637L40.288 19.188L40.339 19.7617L37.1813 20.0374Z" fill="white"/>
<path d="M42.7566 21.7476L42.9569 18.0621L41.4637 17.9703L41.499 17.32L45.1925 17.547L45.1571 18.1974L43.6639 18.1056L43.4636 21.791L42.7566 21.7476Z" fill="white"/>
<path d="M46.156 22.003L46.9962 17.7521L47.6945 17.8996L47.3889 19.4383L48.298 19.6303C48.4202 19.6561 48.5446 19.6851 48.671 19.7172C48.7974 19.7494 48.9056 19.7846 48.9956 19.8227C49.2057 19.9108 49.3823 20.0247 49.5253 20.1642C49.6683 20.3038 49.7674 20.4737 49.8225 20.6739C49.8781 20.8716 49.8796 21.1029 49.827 21.3678C49.754 21.7351 49.6012 22.0063 49.3686 22.1813C49.1392 22.3543 48.8652 22.444 48.5469 22.4506C48.4381 22.4522 48.3154 22.4427 48.1785 22.422C48.0449 22.3992 47.9182 22.3752 47.7985 22.3499L46.156 22.003ZM46.9654 21.5712L47.9251 21.7739C48.0032 21.7904 48.0908 21.8062 48.1881 21.8213C48.2854 21.8363 48.3738 21.8413 48.4534 21.8363C48.5939 21.825 48.7276 21.7726 48.8545 21.6791C48.9841 21.5862 49.0703 21.4322 49.113 21.217C49.1562 20.9993 49.1375 20.8204 49.057 20.6804C48.979 20.5409 48.8604 20.4352 48.7012 20.3633C48.6294 20.329 48.5524 20.3004 48.4703 20.2776C48.3881 20.2548 48.3093 20.2354 48.2338 20.2195L47.2741 20.0168L46.9654 21.5712Z" fill="white"/>
<path d="M52.4594 23.6129L54.1153 19.6241L57.3616 21.0383L55.7056 25.0271L55.0527 24.7427L56.4496 21.3781L54.5091 20.5327L53.1123 23.8973L52.4594 23.6129Z" fill="white"/>
<path d="M58.26 26.6466C57.9145 26.4327 57.6743 26.1667 57.5395 25.8488C57.4061 25.5285 57.3655 25.1828 57.4176 24.8116C57.4734 24.4395 57.6104 24.0693 57.8286 23.7009C58.0496 23.3279 58.3078 23.0311 58.6032 22.8105C58.9008 22.5914 59.218 22.4703 59.5548 22.4473C59.8938 22.4258 60.2361 22.5219 60.5817 22.7358C60.9227 22.9469 61.1651 23.2143 61.309 23.5379C61.4565 23.8606 61.5087 24.2104 61.4657 24.5872C61.4226 24.964 61.2913 25.3378 61.0717 25.7085C60.8521 26.0791 60.5889 26.3713 60.2821 26.5848C59.9754 26.7984 59.6466 26.9154 59.2958 26.9359C58.9486 26.9555 58.6033 26.8591 58.26 26.6466ZM55.6501 27.142L58.8224 21.7875L59.3646 22.1232L57.748 24.8519L57.8162 24.8941L56.2605 27.5199L55.6501 27.142ZM58.5165 26.0407C58.7597 26.1913 58.9975 26.254 59.2299 26.229C59.4622 26.2039 59.6806 26.1108 59.8848 25.9495C60.0905 25.786 60.2713 25.5726 60.4272 25.3095C60.5817 25.0486 60.6816 24.7883 60.7267 24.5285C60.7742 24.2702 60.7526 24.0285 60.6621 23.8036C60.5739 23.5802 60.4048 23.391 60.1547 23.2362C59.916 23.0884 59.683 23.0255 59.4556 23.0474C59.2296 23.067 59.0156 23.1581 58.8136 23.3208C58.6129 23.4811 58.4312 23.6986 58.2685 23.9732C58.1086 24.2432 58.0031 24.5079 57.952 24.7671C57.9046 25.0255 57.9245 25.2646 58.0118 25.4843C58.1004 25.7018 58.2687 25.8873 58.5165 26.0407Z" fill="white"/>
<path d="M61.8252 29.2463C61.495 28.9686 61.2708 28.6535 61.1525 28.301C61.0363 27.9502 61.0211 27.5873 61.1069 27.2123C61.1928 26.8373 61.3749 26.4774 61.6533 26.1326C61.9367 25.7815 62.2507 25.529 62.5954 25.3751C62.94 25.2212 63.2915 25.1718 63.6498 25.227C64.0098 25.2801 64.3519 25.4429 64.6759 25.7154C65.0082 25.9947 65.2334 26.3107 65.3517 26.6632C65.4716 27.0136 65.4876 27.3755 65.3997 27.7488C65.3156 28.1217 65.1343 28.4806 64.8559 28.8255C64.5741 29.1744 64.2611 29.4278 63.9169 29.5855C63.5743 29.7411 63.2222 29.7935 62.8605 29.7424C62.5005 29.6893 62.1554 29.5239 61.8252 29.2463ZM62.2478 28.7228C62.5924 29.0126 62.9421 29.1125 63.297 29.0226C63.6519 28.9328 63.9777 28.7041 64.2744 28.3366C64.5795 27.9587 64.737 27.5867 64.7468 27.2205C64.7583 26.8523 64.5938 26.5251 64.2533 26.2388C64.0215 26.0439 63.7883 25.9362 63.5536 25.9156C63.3188 25.895 63.0895 25.9466 62.8656 26.0704C62.6418 26.1941 62.4315 26.3778 62.2348 26.6215C61.9313 26.9973 61.7741 27.3712 61.763 27.7432C61.7519 28.1152 61.9135 28.4417 62.2478 28.7228Z" fill="white"/>
<path d="M65.1292 32.4456C64.8446 32.1275 64.6638 31.7863 64.5866 31.422C64.5132 31.0579 64.5397 30.6963 64.6661 30.337C64.7944 29.976 65.0226 29.6431 65.3505 29.3383C65.694 29.0192 66.0491 28.8083 66.4158 28.7057C66.7844 28.6013 67.1405 28.6021 67.4839 28.7079C67.8311 28.8139 68.1452 29.024 68.4262 29.3381C68.718 29.6642 68.8931 30.0089 68.9516 30.3722C69.0119 30.7375 68.9581 31.1025 68.7904 31.4672C68.6245 31.8339 68.3481 32.1823 67.9611 32.5125L67.4779 31.9724L67.6642 31.7992C68.045 31.4344 68.2607 31.0856 68.3113 30.7528C68.3638 30.4183 68.2522 30.097 67.9766 29.7889C67.6813 29.4588 67.3538 29.3033 66.9941 29.3224C66.6345 29.3415 66.2626 29.5295 65.8783 29.8866C65.5077 30.231 65.2974 30.5839 65.2476 30.9453C65.1977 31.3066 65.3151 31.6464 65.5997 31.9645C65.7912 32.1785 66.0052 32.3204 66.2417 32.3901C66.4782 32.4598 66.726 32.4567 66.985 32.3808L67.2724 33.0536C66.8821 33.1854 66.4967 33.1955 66.1161 33.0839C65.7392 32.9724 65.4102 32.7597 65.1292 32.4456ZM65.5717 29.8418L65.988 29.455L68.1304 31.8496L67.7141 32.2364L65.5717 29.8418Z" fill="white"/>
<path d="M66.9835 34.434L70.5145 32.0047L70.9166 32.6087L69.2176 33.78L71.9287 34.1288L72.4448 34.904L69.6148 34.5197L69.0412 37.5246L68.4849 36.6891L69.0869 33.8701L67.3879 35.0414L66.9835 34.434Z" fill="white"/>
<path d="M69.98 39.3496L73.2433 37.7353L72.5875 36.3677L73.1634 36.0828L74.7855 39.4654L74.2096 39.7503L73.5538 38.3827L70.2904 39.997L69.98 39.3496Z" fill="white"/>
<path d="M71.2175 61.2313L75.1275 63.0797L73.6727 66.3026L69.7627 64.4542L70.0553 63.806L73.3535 65.3652L74.2231 63.4387L70.9249 61.8795L71.2175 61.2313Z" fill="white"/>
<path d="M68.2104 66.8739C68.4395 66.5125 68.7188 66.2544 69.0482 66.0995C69.3762 65.9469 69.7289 65.895 70.1065 65.9441C70.484 65.9931 70.8591 66.1408 71.2318 66.3873C71.6111 66.6383 71.8981 66.9301 72.0926 67.2627C72.2872 67.5953 72.3804 67.9453 72.3724 68.3128C72.3665 68.6817 72.2512 69.0435 72.0263 69.3982C71.7958 69.7618 71.5158 70.0211 71.1864 70.176C70.8592 70.3323 70.5076 70.3849 70.1315 70.3336C69.7562 70.2861 69.3822 70.1391 69.0095 69.8925C68.6324 69.6431 68.3447 69.3524 68.1465 69.0206C67.9505 68.6902 67.8543 68.3398 67.8579 67.9694C67.8638 67.6005 67.9812 67.2353 68.2104 66.8739ZM68.7761 67.2481C68.537 67.6252 68.4841 67.9885 68.6173 68.3379C68.7505 68.6873 69.0158 68.9934 69.413 69.2561C69.8213 69.5263 70.2051 69.6479 70.5642 69.621C70.9256 69.5956 71.2244 69.3966 71.4606 69.0239C71.6214 68.7703 71.6969 68.5239 71.687 68.2847C71.6771 68.0456 71.5973 67.8192 71.4477 67.6055C71.2981 67.3918 71.0916 67.1979 70.8283 67.0237C70.4222 66.7551 70.0366 66.6338 69.6716 66.66C69.3065 66.6862 69.008 66.8822 68.7761 67.2481Z" fill="white"/>
<path d="M65.5289 70.5408C65.8121 70.2106 66.126 69.9948 66.4706 69.8934C66.8154 69.7959 67.1687 69.8018 67.5304 69.9112C67.8921 70.0205 68.2397 70.2204 68.5733 70.5108C68.9079 70.8164 69.1506 71.1448 69.3014 71.4961C69.4524 71.8511 69.5007 72.2087 69.4462 72.5688C69.3917 72.9288 69.2246 73.272 68.9449 73.5983C68.6497 73.9426 68.3118 74.1637 67.9314 74.2615C67.5493 74.3614 67.1759 74.3233 66.8113 74.1474L67.108 73.4738C67.3548 73.5731 67.5967 73.5916 67.8336 73.5293C68.0689 73.4691 68.272 73.3392 68.4429 73.1399C68.6346 72.9163 68.7405 72.6857 68.7608 72.4479C68.7831 72.2119 68.7334 71.9774 68.6118 71.7446C68.4921 71.5135 68.3161 71.2925 68.0838 71.0817C67.7202 70.7646 67.3575 70.5885 66.9955 70.5536C66.6339 70.5224 66.3141 70.669 66.0361 70.9932C65.8531 71.2067 65.7492 71.4267 65.7243 71.6533C65.7015 71.8817 65.7511 72.1143 65.873 72.351L65.2658 72.7689C65.0603 72.3867 64.9803 72.0044 65.0257 71.622C65.0711 71.2395 65.2389 70.8792 65.5289 70.5408Z" fill="white"/>
<path d="M63.8533 72.679L66.6122 76.0421L66.1494 76.436L62.7683 74.882L63.6686 78.547L63.2057 78.9409L60.4468 75.5778L60.9672 75.135L62.7783 77.3428L62.0079 74.2494L62.2923 74.0074L65.1441 75.3296L63.333 73.1218L63.8533 72.679Z" fill="white"/>
<path d="M57.9554 77.0596C58.3195 76.8384 58.6835 76.7321 59.0474 76.7406C59.4091 76.7504 59.749 76.8616 60.0671 77.074C60.3852 77.2864 60.6579 77.5861 60.8852 77.9731C61.1167 78.367 61.2472 78.7563 61.2767 79.1408C61.3063 79.5253 61.2371 79.8802 61.0692 80.2054C60.9026 80.5329 60.6407 80.8052 60.2835 81.0222C59.9171 81.2447 59.552 81.3517 59.1881 81.3432C58.8255 81.3371 58.4863 81.2271 58.1705 81.0133C57.8538 80.8032 57.5817 80.5047 57.3544 80.1177C57.1243 79.7261 56.9927 79.3375 56.9595 78.9521C56.9277 78.5689 56.9944 78.2124 57.1596 77.8826C57.3261 77.555 57.5914 77.2807 57.9554 77.0596ZM58.3006 77.647C57.9207 77.8777 57.7143 78.1792 57.6813 78.5514C57.6484 78.9235 57.7531 79.3158 57.9954 79.7283C58.2446 80.1524 58.5365 80.4326 58.8712 80.5689C59.2073 80.7075 59.563 80.6628 59.9383 80.4348C60.1939 80.2796 60.3694 80.0928 60.4651 79.8743C60.5607 79.6559 60.588 79.4176 60.5468 79.1596C60.5057 78.9016 60.4048 78.6359 60.2442 78.3625C59.9964 77.9407 59.7027 77.6601 59.363 77.5205C59.0233 77.381 58.6691 77.4231 58.3006 77.647Z" fill="white"/>
<path d="M54.6059 78.9928L56.0183 82.4143L57.3912 81.8308L57.6404 82.4346L54.2446 83.8779L53.9954 83.2741L55.3683 82.6906L53.9559 79.2691L54.6059 78.9928Z" fill="white"/>
<path d="M49.4922 80.6776C49.8811 80.5753 50.2338 80.5867 50.5502 80.7118C50.8673 80.8395 51.1381 81.0531 51.3627 81.3524C51.5854 81.655 51.7507 82.0157 51.8586 82.4346C51.9678 82.8588 51.9978 83.2565 51.9486 83.6279C51.8968 83.9999 51.7626 84.3172 51.5461 84.5798C51.3269 84.843 51.0229 85.0258 50.6339 85.1281C50.2501 85.2291 49.8948 85.2184 49.5682 85.096C49.2397 84.9768 48.958 84.7689 48.7232 84.4723C48.4883 84.1757 48.3167 83.8166 48.2081 83.3951C48.0996 82.9736 48.0763 82.5754 48.1383 82.2007C48.2003 81.826 48.3453 81.5031 48.5734 81.2319C48.7995 80.9641 49.1058 80.7793 49.4922 80.6776ZM50.9477 78.4193L52.5154 84.5081L51.905 84.6687L51.1061 81.5657L51.0294 81.5859L50.2606 78.6001L50.9477 78.4193ZM49.7404 81.2916C49.4666 81.3636 49.2582 81.4935 49.1153 81.6811C48.9723 81.8688 48.8869 82.0941 48.8589 82.357C48.8317 82.6226 48.8566 82.905 48.9336 83.2042C49.01 83.5008 49.1238 83.7571 49.275 83.9729C49.4236 84.1894 49.6081 84.3437 49.8286 84.4357C50.0464 84.5284 50.2961 84.5377 50.5776 84.4637C50.8463 84.393 51.0515 84.2667 51.1933 84.085C51.3357 83.9058 51.4196 83.6851 51.4449 83.4228C51.471 83.1631 51.4438 82.8772 51.3634 82.5649C51.2844 82.2579 51.1714 81.9945 51.0247 81.7747C50.8761 81.5582 50.6944 81.4046 50.4798 81.3138C50.2658 81.2256 50.0194 81.2182 49.7404 81.2916Z" fill="white"/>
<path d="M45.1475 81.4915C45.5661 81.4448 45.9425 81.4974 46.2766 81.6492C46.6084 81.804 46.88 82.0397 47.0913 82.3564C47.303 82.6758 47.434 83.0609 47.4844 83.5117C47.5372 83.9838 47.4973 84.4015 47.3646 84.7647C47.2323 85.1305 47.0238 85.4238 46.7393 85.6446C46.4525 85.8683 46.1024 86.0032 45.6891 86.0493C45.26 86.0971 44.8842 86.0378 44.5617 85.8712C44.2365 85.7049 43.9782 85.4447 43.7867 85.0907C43.5926 84.7369 43.4774 84.3028 43.4412 83.7883L44.152 83.709L44.1806 83.9651C44.2479 84.4951 44.3988 84.8793 44.6334 85.1178C44.8682 85.359 45.1884 85.457 45.5938 85.4118C46.0282 85.3633 46.3428 85.1851 46.5376 84.8771C46.7324 84.5691 46.8002 84.1511 46.7412 83.6229C46.6842 83.1134 46.5269 82.7313 46.2691 82.4764C46.0114 82.2216 45.6733 82.1175 45.2547 82.1642C44.973 82.1956 44.7355 82.2882 44.5421 82.4421C44.3487 82.596 44.2065 82.8023 44.1155 83.0609L43.4139 82.9001C43.5371 82.5002 43.7541 82.1762 44.0648 81.9282C44.3733 81.6832 44.7342 81.5376 45.1475 81.4915ZM46.9557 83.3964L47.0197 83.9686L43.8685 84.32L43.8045 83.7478L46.9557 83.3964Z" fill="white"/>
<path d="M41.3463 81.8227L41.2302 85.5109L42.7256 85.5669L42.7051 86.2178L39.0063 86.0792L39.0268 85.4284L40.5222 85.4844L40.6384 81.7962L41.3463 81.8227Z" fill="white"/>
<path d="M37.9343 81.6549L37.1916 85.9233L36.4898 85.7925L36.7601 84.2475L35.8466 84.0772C35.7238 84.0544 35.5988 84.0283 35.4716 83.9992C35.3445 83.9701 35.2355 83.9375 35.1446 83.9015C34.9324 83.8185 34.7532 83.7089 34.607 83.5728C34.4607 83.4368 34.3578 83.2693 34.2981 83.0705C34.238 82.8743 34.2312 82.6432 34.2777 82.3771C34.3422 82.0083 34.4888 81.7337 34.7174 81.5532C34.9429 81.3749 35.2148 81.2787 35.533 81.2646C35.6417 81.2603 35.7647 81.2669 35.902 81.2844C36.0363 81.3039 36.1635 81.3249 36.2837 81.3473L37.9343 81.6549ZM37.1348 82.1058L36.1703 81.926C36.0919 81.9114 36.0039 81.8977 35.9063 81.885C35.8087 81.8722 35.7201 81.8693 35.6406 81.8763C35.5004 81.8909 35.3679 81.9465 35.243 82.0429C35.1156 82.1388 35.033 82.2948 34.9952 82.5108C34.9569 82.7295 34.9797 82.9078 35.0635 83.0459C35.1447 83.1834 35.2657 83.2862 35.4266 83.3543C35.4991 83.3868 35.5768 83.4135 35.6595 83.4344C35.7422 83.4553 35.8215 83.4727 35.8973 83.4869L36.8618 83.6666L37.1348 82.1058Z" fill="white"/>
<path d="M31.6007 80.1925L30.0368 84.2183L26.7579 82.8817L28.3218 78.8559L28.9813 79.1247L27.6621 82.5206L29.622 83.3195L30.9413 79.9237L31.6007 80.1925Z" fill="white"/>
<path d="M25.73 77.2941C26.0805 77.4997 26.3268 77.7599 26.4689 78.0745C26.6097 78.3915 26.6583 78.7361 26.6148 79.1084C26.5677 79.4816 26.4392 79.8549 26.2295 80.2283C26.0172 80.6063 25.7659 80.9091 25.4756 81.1365C25.1831 81.3626 24.8687 81.4912 24.5325 81.5221C24.194 81.5516 23.8495 81.4636 23.499 81.2579C23.1532 81.055 22.9046 80.7935 22.7532 80.4734C22.5983 80.1543 22.538 79.8059 22.5723 79.4283C22.6066 79.0506 22.7293 78.6739 22.9403 78.2982C23.1513 77.9225 23.4077 77.6243 23.7095 77.4036C24.0113 77.1829 24.3373 77.0581 24.6877 77.0293C25.0344 77.0015 25.3818 77.0898 25.73 77.2941ZM28.3283 76.7373L25.2801 82.1643L24.7301 81.8416L26.2835 79.0759L26.2144 79.0353L27.7092 76.374L28.3283 76.7373ZM25.4876 77.9058C25.2409 77.761 25.0017 77.7039 24.7699 77.7344C24.5382 77.7649 24.322 77.8632 24.1215 78.0292C23.9196 78.1976 23.7438 78.4151 23.594 78.6818C23.4455 78.9462 23.3517 79.2087 23.3125 79.4695C23.2711 79.7288 23.2982 79.9698 23.3939 80.1925C23.4872 80.4138 23.6607 80.5989 23.9144 80.7477C24.1565 80.8898 24.3909 80.9472 24.6178 80.9199C24.8433 80.895 25.0552 80.7989 25.2534 80.6315C25.4504 80.4665 25.627 80.2448 25.7833 79.9665C25.937 79.6928 26.0364 79.4258 26.0815 79.1655C26.1229 78.9061 26.0975 78.6676 26.0051 78.45C25.9114 78.2346 25.7389 78.0533 25.4876 77.9058Z" fill="white"/>
<path d="M22.1069 74.7851C22.4435 75.0549 22.6749 75.3646 22.8013 75.7142C22.9256 76.0621 22.9492 76.4245 22.872 76.8014C22.7949 77.1784 22.6211 77.5425 22.3507 77.8938C22.0755 78.2514 21.7674 78.5112 21.4264 78.6732C21.0853 78.8352 20.7351 78.8929 20.3755 78.8462C20.0144 78.8016 19.6687 78.647 19.3384 78.3822C18.9997 78.1108 18.7672 77.8003 18.6408 77.4507C18.5128 77.1032 18.4884 76.7418 18.5677 76.3666C18.6432 75.9918 18.8162 75.6287 19.0865 75.2774C19.3602 74.9219 19.6672 74.6613 20.0078 74.4955C20.3467 74.3318 20.6976 74.2712 21.0603 74.3136C21.4215 74.3582 21.7703 74.5154 22.1069 74.7851ZM21.6965 75.3184C21.3453 75.0369 20.9933 74.9453 20.6406 75.0435C20.2878 75.1417 19.9674 75.378 19.6792 75.7524C19.3829 76.1374 19.2341 76.513 19.2327 76.8792C19.2298 77.2476 19.4018 77.5708 19.7488 77.849C19.985 78.0383 20.2207 78.1405 20.4559 78.1555C20.691 78.1706 20.9191 78.1136 21.1401 77.9846C21.361 77.8556 21.5671 77.667 21.7581 77.4187C22.0528 77.0359 22.2013 76.6584 22.2038 76.2863C22.2063 75.9141 22.0372 75.5915 21.6965 75.3184Z" fill="white"/>
<path d="M18.739 71.6583C19.0308 71.9695 19.2195 72.3064 19.305 72.6687C19.3868 73.031 19.3687 73.3932 19.2506 73.7553C19.1306 74.1193 18.9102 74.4576 18.5894 74.77C18.2533 75.0972 17.9032 75.3165 17.539 75.4277C17.1729 75.5408 16.8169 75.5485 16.4711 75.4508C16.1216 75.353 15.8027 75.1505 15.5146 74.8431C15.2154 74.524 15.0324 74.1836 14.9655 73.8217C14.8968 73.4579 14.9421 73.0918 15.1014 72.7232C15.2588 72.3527 15.5271 71.9978 15.9063 71.6585L16.4019 72.1871L16.2197 72.3645C15.8474 72.7383 15.6398 73.0921 15.5969 73.426C15.5521 73.7617 15.671 74.0803 15.9537 74.3818C16.2565 74.7048 16.5875 74.8525 16.9466 74.8249C17.3057 74.7973 17.6732 74.6005 18.0491 74.2344C18.4117 73.8813 18.6138 73.5235 18.6553 73.161C18.6968 72.7986 18.5716 72.4617 18.2798 72.1504C18.0834 71.9409 17.8661 71.8042 17.6281 71.7401C17.3901 71.6761 17.1424 71.685 16.8852 71.767L16.5824 71.1013C16.9695 70.9602 17.3546 70.941 17.7377 71.0436C18.1171 71.146 18.4508 71.3509 18.739 71.6583ZM18.3567 74.2719L17.9494 74.6685L15.7524 72.3252L16.1596 71.9286L18.3567 74.2719Z" fill="white"/>
<path d="M16.8473 69.7245L13.3732 72.2374L12.9573 71.6431L14.6289 70.4316L11.9107 70.1474L11.377 69.3846L14.215 69.7015L14.7194 66.6836L15.2947 67.5057L14.7575 70.3384L16.4291 69.1269L16.8473 69.7245Z" fill="white"/>
<path d="M13.7272 64.8757L10.5017 66.5677L11.1885 67.9192L10.6193 68.2178L8.92048 64.8748L9.48969 64.5763L10.1765 65.9278L13.4021 64.2359L13.7272 64.8757Z" fill="white"/>
<ellipse cx="8.87303" cy="52.1056" rx="1.99698" ry="2.04627" fill="white"/>
<ellipse cx="74.7793" cy="52.1056" rx="1.99698" ry="2.04627" fill="white"/>
</svg>
