<svg width="12" height="12" viewBox="0 0 12 12" fill="none" xmlns="http://www.w3.org/2000/svg">
<g clip-path="url(#clip0_1_778)">
<path d="M5.23523 0.0364733C3.85241 0.216942 2.61491 0.84741 1.6446 1.86225C0.803195 2.7435 0.247726 3.86382 0.0555384 5.06382C-0.00539909 5.43882 -0.0194616 6.3271 0.0297572 6.72788C0.257101 8.60288 1.34694 10.2458 2.99694 11.2115C3.59694 11.5607 4.28366 11.8068 5.02194 11.9357C5.42976 12.006 6.2946 12.0224 6.72585 11.9662C9.30866 11.6427 11.3758 9.72788 11.8915 7.18491C12.0016 6.64585 12.0298 5.81616 11.9618 5.25132C11.6243 2.5396 9.45866 0.373973 6.74694 0.0364733C6.39069 -0.00571442 5.57273 -0.00571442 5.23523 0.0364733ZM6.67663 0.812254C8.56335 1.04897 10.2321 2.37554 10.9024 4.17319C11.2657 5.14585 11.3266 6.27788 11.0712 7.281C10.6024 9.11382 9.18679 10.5529 7.36101 11.0544C6.32273 11.338 5.14148 11.2794 4.13132 10.8927C2.57273 10.2951 1.36804 8.95444 0.934445 7.33257C0.711788 6.49585 0.711788 5.50678 0.934445 4.67007C1.18054 3.75132 1.67507 2.90757 2.35476 2.25132C3.5196 1.12397 5.06648 0.610692 6.67663 0.812254Z" fill="#606060"/>
<path d="M5.625 4.21406V6.17578L6.80391 7.35469L7.98047 8.53125L8.25703 8.25469L8.53125 7.98047L7.45313 6.90234L6.375 5.82422V4.03828V2.25H6H5.625V4.21406Z" fill="#606060"/>
</g>
<defs>
<clipPath id="clip0_1_778">
<rect width="12" height="12" fill="white"/>
</clipPath>
</defs>
</svg>
